<svg width="36" height="36" viewBox="0 0 36 36" fill="none" xmlns="http://www.w3.org/2000/svg">
<path fill-rule="evenodd" clip-rule="evenodd" d="M17.7937 0C15.7149 0 14.0297 1.68523 14.0297 3.76406V8.70639L10.5349 5.21161C9.06493 3.74165 6.68166 3.74165 5.21171 5.21161C3.74175 6.68156 3.74175 9.06483 5.21171 10.5348L8.70659 14.0297H3.76406C1.68523 14.0297 9.08622e-08 15.7149 0 17.7937C-9.08622e-08 19.8726 1.68523 21.5578 3.76406 21.5578H8.70659L5.21172 25.0527C3.74177 26.5226 3.74177 28.9059 5.21172 30.3758C6.68168 31.8458 9.06495 31.8458 10.5349 30.3758L14.0297 26.8811V31.8234C14.0297 33.9022 15.7149 35.5875 17.7937 35.5875C19.8726 35.5875 21.5578 33.9022 21.5578 31.8234V26.8809L25.0527 30.3757C26.5226 31.8457 28.9059 31.8457 30.3758 30.3757C31.8458 28.9058 31.8458 26.5225 30.3758 25.0526L26.8811 21.5578H31.8234C33.9022 21.5578 35.5875 19.8726 35.5875 17.7937C35.5875 15.7149 33.9022 14.0297 31.8234 14.0297H26.8811L30.3759 10.5349C31.8458 9.06493 31.8458 6.68166 30.3759 5.21171C28.9059 3.74175 26.5226 3.74175 25.0527 5.21171L21.5578 8.70659V3.76406C21.5578 1.68523 19.8726 0 17.7937 0ZM17.7947 22.5848C20.4405 22.5848 22.5853 20.44 22.5853 17.7942C22.5853 15.1484 20.4405 13.0035 17.7947 13.0035C15.1489 13.0035 13.004 15.1484 13.004 17.7942C13.004 20.44 15.1489 22.5848 17.7947 22.5848Z" fill="#2865FF"/>
</svg>
